<svg xmlns="http://www.w3.org/2000/svg" viewBox="0 0 26 26"><defs><style>.cls-1{fill:#fff;}</style></defs><g id="Layer_2" data-name="Layer 2"><g id="Layer_1-2" data-name="Layer 1"><path class="cls-1" d="M20.28,0H5.72A5.73,5.73,0,0,0,0,5.72V20.28A5.73,5.73,0,0,0,5.72,26H20.28A5.73,5.73,0,0,0,26,20.28V5.72A5.73,5.73,0,0,0,20.28,0ZM23,20.28A2.72,2.72,0,0,1,20.28,23H5.72A2.72,2.72,0,0,1,3,20.28V5.72A2.72,2.72,0,0,1,5.72,3H20.28A2.72,2.72,0,0,1,23,5.72Z"/><path class="cls-1" d="M19,15.5H7a1.5,1.5,0,0,0,0,3H19a1.5,1.5,0,0,0,0-3Z"/><path class="cls-1" d="M19,7.5H7a1.5,1.5,0,0,0,0,3H19a1.5,1.5,0,0,0,0-3Z"/></g></g></svg>