<svg xmlns="http://www.w3.org/2000/svg" viewBox="0 0 32.37 32"><defs><style>.cls-1{fill:#c081fc;}</style></defs><g id="Layer_2" data-name="Layer 2"><g id="Layer_1-2" data-name="Layer 1"><path class="cls-1" d="M32.37,16A16,16,0,1,0,1.89,22.82,5,5,0,0,1,.59,23H.37a.36.36,0,0,0-.22.66l4.42,3.26a.51.51,0,0,0,.8-.41V20.76a.34.34,0,0,0-.64-.17,4.74,4.74,0,0,1-1.07,1.28A14,14,0,1,1,30.37,16h0a14,14,0,0,1-14,14h-1A2.23,2.23,0,0,1,14,29.45a.85.85,0,0,1-.32-.79,1.75,1.75,0,0,1,.53-1.09l9.34-9.33h0a5.61,5.61,0,0,0-7.23-8.53,5.61,5.61,0,0,0-7.22,8.53l4.38,4.39,1.42-1.42-4.39-4.39a3.61,3.61,0,0,1,5.1-5.1l.71.71.71-.71a3.61,3.61,0,1,1,5.1,5.1h0l-9.33,9.34a3.8,3.8,0,0,0-1.12,2.36A2.88,2.88,0,0,0,12.8,31a4.21,4.21,0,0,0,2.56,1h1a16,16,0,0,0,16-16Z"/></g></g></svg>