<svg xmlns="http://www.w3.org/2000/svg" viewBox="0 0 32 38"><defs><style>.cls-1{fill:#fb5e5e;fill-rule:evenodd;}</style></defs><g id="Layer_2" data-name="Layer 2"><g id="Layer_1-2" data-name="Layer 1"><path class="cls-1" d="M28.58,14.94l1.24-5A8,8,0,0,0,22.06,0H9.94A8,8,0,0,0,2.18,9.92l1.24,5A15,15,0,0,0,0,24.47,15.32,15.32,0,0,0,7,37.23,5.13,5.13,0,0,0,9.76,38h1.15l.3-.29h0l11-11h0l.87-.87A5,5,0,0,0,16,18.76a5,5,0,0,0-7.07,7.07l4.25,4.25,1.41-1.41-4.25-4.25a3,3,0,0,1,4.25-4.24L16,21.59l1.41-1.41a3,3,0,0,1,4.25,4.24l-2.33,2.33h0l-4.74,4.74h0L10.09,36H9.76a3.06,3.06,0,0,1-1.7-.44A13.31,13.31,0,0,1,2,24.47,13.74,13.74,0,0,1,16,11,13.74,13.74,0,0,1,30,24.47a13.31,13.31,0,0,1-6.06,11.09,3.06,3.06,0,0,1-1.7.44h-6.5L14,37.71l-.29.29h8.5a5.13,5.13,0,0,0,2.81-.77,15.32,15.32,0,0,0,7-12.76A15,15,0,0,0,28.58,14.94ZM8.48,10.81,7.9,8.48A2,2,0,0,1,9.84,6H22.16A2,2,0,0,1,24.1,8.48l-.58,2.34a16.49,16.49,0,0,0-15,0ZM25.31,11.9,26,9a4,4,0,0,0-3.88-5H9.84A4,4,0,0,0,6,9l.73,2.93a17.11,17.11,0,0,0-1.64,1.31L4.12,9.44A6,6,0,0,1,9.94,2H22.06a6,6,0,0,1,5.82,7.44L27,13.21A17.11,17.11,0,0,0,25.31,11.9Z"/></g></g></svg>