<svg xmlns="http://www.w3.org/2000/svg" viewBox="0 0 14 12.31"><defs><style>.cls-1{fill:#fff;}</style></defs><g id="Layer_2" data-name="Layer 2"><g id="Layer_1-2" data-name="Layer 1"><path class="cls-1" d="M13.88,2.78a3.22,3.22,0,0,0-.37-.9,3.3,3.3,0,0,0-.6-.79A3.71,3.71,0,0,0,8.86.28,3.85,3.85,0,0,0,7.7,1l0,.06L7,1.74l-.65-.65L6.3,1A3.85,3.85,0,0,0,5.14.28,3.77,3.77,0,0,0,2.3.28a3.78,3.78,0,0,0-1.21.81,3.6,3.6,0,0,0-1,1.69,4.21,4.21,0,0,0-.12,1,3.73,3.73,0,0,0,.12.94,4,4,0,0,0,.36.89,3.88,3.88,0,0,0,.61.79L7,12.31,12.91,6.4a3.3,3.3,0,0,0,.6-.79A3.56,3.56,0,0,0,14,3.78,3.38,3.38,0,0,0,13.88,2.78Zm-1,1.63a2.72,2.72,0,0,1-.69,1.21L7,10.82,1.77,5.62a2.71,2.71,0,0,1-.44-.57,3.08,3.08,0,0,1-.27-.65A3.25,3.25,0,0,1,1,3.71,3.36,3.36,0,0,1,1.06,3a2.48,2.48,0,0,1,.27-.65,2.71,2.71,0,0,1,.44-.57,3,3,0,0,1,.89-.6,2.77,2.77,0,0,1,2.08,0,2.78,2.78,0,0,1,.88.59L7,3.14,8.34,1.77a2.71,2.71,0,0,1,3-.59,3,3,0,0,1,.89.6,2.37,2.37,0,0,1,.43.57A2.73,2.73,0,0,1,13,3.69a2.92,2.92,0,0,1-.06.72Z"/></g></g></svg>