<svg width="16" height="26" viewBox="0 0 16 26" fill="none" xmlns="http://www.w3.org/2000/svg">
<path d="M7.94396 26C3.57451 26 -0.000488281 22.425 -0.000488281 18.0556V7.94444C-0.000488281 3.575 3.57451 0 7.94396 0C12.3134 0 15.8884 3.575 15.8884 7.94444V18.0556C15.8884 22.425 12.3134 26 7.94396 26ZM7.94396 1.44444C4.36896 1.44444 1.44396 4.36944 1.44396 7.94444V18.0556C1.44396 21.6306 4.36896 24.5556 7.94396 24.5556C11.519 24.5556 14.444 21.6306 14.444 18.0556V7.94444C14.444 4.36944 11.519 1.44444 7.94396 1.44444Z" fill="#132A4D"/>
<path d="M7.94463 9.02791C7.54741 9.02791 7.22241 8.70291 7.22241 8.30569V5.4168C7.22241 5.01958 7.54741 4.69458 7.94463 4.69458C8.34186 4.69458 8.66686 5.01958 8.66686 5.4168V8.30569C8.66686 8.70291 8.34186 9.02791 7.94463 9.02791Z" fill="#132A4D"/>
</svg>
