<svg xmlns="http://www.w3.org/2000/svg" viewBox="0 0 23.36 30.06"><defs><style>.cls-1{fill:#fff;}</style></defs><g id="Layer_2" data-name="Layer 2"><g id="Layer_1-2" data-name="Layer 1"><path class="cls-1" d="M23.21,26.26a1.5,1.5,0,0,0-2-.68,21,21,0,0,1-9.09,1.47A19.33,19.33,0,0,1,3,24.73l.2-10.19A22.06,22.06,0,0,1,5.12,6,5.09,5.09,0,0,1,9.77,3h4.56V5.76a2.5,2.5,0,0,1-2.5,2.5H9.3a2.5,2.5,0,0,0-2.5,2.5v5.11a2.69,2.69,0,0,0,1.81,2.46,3.13,3.13,0,0,0,2.86-.23c2.94-2,6.78-1.45,8.42.87a1.5,1.5,0,0,0,2.45-1.73c-2.79-4-8.56-4.26-12.48-1.67H9.8v-4.3h2a5.5,5.5,0,0,0,5.5-5.5V2.5A2.5,2.5,0,0,0,14.83,0H9.77a8.11,8.11,0,0,0-7.4,4.81A25,25,0,0,0,.23,14.48L0,25.51l0,.79.64.46C3.73,29,8,29.91,12,30a23.62,23.62,0,0,0,10.52-1.77A1.5,1.5,0,0,0,23.21,26.26Z"/></g></g></svg>