<svg width="24" height="24" viewBox="0 0 24 24" fill="none" xmlns="http://www.w3.org/2000/svg">
<path d="M14.3085 15.1911L12.1675 17.3001C11.0511 16.6264 10.0139 15.8294 9.07547 14.9241C8.1719 13.9852 7.37535 12.9488 6.70047 11.8341L8.81047 9.69313C8.93709 9.56367 9.0226 9.39965 9.05623 9.22171C9.08986 9.04378 9.07011 8.85987 8.99947 8.69313L6.80047 3.56013C6.71356 3.35792 6.55689 3.19368 6.35903 3.09731C6.16116 3.00095 5.93525 2.97888 5.72247 3.03513L1.68847 4.10013C1.4865 4.15246 1.30836 4.27196 1.18332 4.43898C1.05828 4.606 0.993799 4.81059 1.00047 5.01913C1.25738 9.71055 3.20814 14.1493 6.49047 17.5111C9.85345 20.794 14.2938 22.7444 18.9865 23.0001C19.1947 23.0067 19.3991 22.9421 19.5657 22.8171C19.7324 22.692 19.8515 22.5139 19.9035 22.3121L20.9695 18.2761C21.026 18.0635 21.0042 17.8376 20.908 17.6397C20.8118 17.4418 20.6476 17.285 20.4455 17.1981L15.3165 15.0001C15.1486 14.9279 14.9629 14.9074 14.7833 14.9415C14.6037 14.9755 14.4383 15.0624 14.3085 15.1911V15.1911Z" stroke="#FFD215" stroke-width="2" stroke-miterlimit="10" stroke-linecap="round" stroke-linejoin="round"/>
<path d="M14 1C16.3869 1 18.6761 1.94821 20.364 3.63604C22.0518 5.32387 23 7.61305 23 10" stroke="#FFD215" stroke-width="2" stroke-miterlimit="10" stroke-linecap="round" stroke-linejoin="round"/>
<path d="M14 5C15.3261 5 16.5979 5.52678 17.5355 6.46447C18.4732 7.40215 19 8.67392 19 10" stroke="#FFD215" stroke-width="2" stroke-miterlimit="10" stroke-linecap="round" stroke-linejoin="round"/>
</svg>
