<svg xmlns="http://www.w3.org/2000/svg" viewBox="0 0 31.93 35.75"><defs><style>.cls-1{fill:#3cbceb;}</style></defs><g id="Layer_2" data-name="Layer 2"><g id="Layer_1-2" data-name="Layer 1"><path class="cls-1" d="M16,8a4,4,0,1,0-4-4A4,4,0,0,0,16,8Zm0-6a2,2,0,1,1-2,2A2,2,0,0,1,16,2Z"/><path class="cls-1" d="M29.19,11A9.36,9.36,0,0,0,16,11,9.35,9.35,0,0,0,2.74,24.18L4.26,25.7h0l.11.1,8.77,8.78a4,4,0,0,0,5.66,0l.58-.58L18,32.58l-.58.58a2,2,0,0,1-2.83,0l-5.5-5.5a6.53,6.53,0,0,0,4.6-1.94l3.52-3.51a3.94,3.94,0,0,1,5.93,5.16,4.57,4.57,0,0,1-.77-1.6.34.34,0,0,0-.66,0l-1.43,5.56a.5.5,0,0,0,.67.59l5.06-2a.37.37,0,0,0,0-.7l-.24-.06a4.65,4.65,0,0,1-1.1-.46,5.94,5.94,0,0,0-8.84-7.9l-3.51,3.52A4.45,4.45,0,0,1,9,25.67a4.63,4.63,0,0,1-3.22-1.33L4.15,22.77a7.35,7.35,0,0,1,10.4-10.4L16,13.79l1.42-1.42a7.35,7.35,0,0,1,10.39,10.4h0l1.42,1.41h0A9.35,9.35,0,0,0,29.19,11Z"/></g></g></svg>