<svg width="148" height="40" viewBox="0 0 148 40" fill="none" xmlns="http://www.w3.org/2000/svg">
<g clip-path="url(#clip0)">
<path d="M20 40C31.0457 40 40 31.0457 40 20C40 8.9543 31.0457 0 20 0C8.9543 0 0 8.9543 0 20C0 31.0457 8.9543 40 20 40Z" fill="white"/>
<path d="M57.6 23.31V28.39H54.28V23.27L48.74 14.06H52.26L56.08 20.43L59.91 14.06H63.16L57.6 23.31Z" fill="white"/>
<path d="M62.29 22.88C62.29 19.57 64.84 17.22 68.34 17.22C71.84 17.22 74.34 19.57 74.34 22.88C74.34 26.19 71.8 28.55 68.34 28.55C64.88 28.55 62.29 26.2 62.29 22.88ZM71.15 22.88C71.1729 22.4962 71.1171 22.1118 70.9859 21.7504C70.8548 21.389 70.6512 21.0582 70.3875 20.7784C70.1239 20.4985 69.8058 20.2756 69.4528 20.1232C69.0999 19.9708 68.7195 19.8921 68.335 19.8921C67.9505 19.8921 67.5701 19.9708 67.2172 20.1232C66.8642 20.2756 66.5461 20.4985 66.2825 20.7784C66.0188 21.0582 65.8152 21.389 65.6841 21.7504C65.5529 22.1118 65.4971 22.4962 65.52 22.88C65.4971 23.2638 65.5529 23.6482 65.6841 24.0096C65.8152 24.371 66.0188 24.7018 66.2825 24.9816C66.5461 25.2615 66.8642 25.4844 67.2172 25.6368C67.5701 25.7892 67.9505 25.8679 68.335 25.8679C68.7195 25.8679 69.0999 25.7892 69.4528 25.6368C69.8058 25.4844 70.1239 25.2615 70.3875 24.9816C70.6512 24.7018 70.8548 24.371 70.9859 24.0096C71.1171 23.6482 71.1729 23.2638 71.15 22.88V22.88Z" fill="white"/>
<path d="M87.86 17.38V26.55C87.86 30.64 85.65 32.55 81.68 32.55C79.7616 32.6158 77.8715 32.0733 76.28 31L77.55 28.7C78.6747 29.5373 80.0378 29.9929 81.44 30C83.69 30 84.67 29 84.67 27V26.52C84.2226 26.9858 83.6803 27.3501 83.0799 27.5881C82.4796 27.8262 81.835 27.9326 81.19 27.9C79.7791 27.9 78.4259 27.3395 77.4282 26.3418C76.4305 25.3441 75.87 23.991 75.87 22.58C75.87 21.169 76.4305 19.8159 77.4282 18.8182C78.4259 17.8205 79.7791 17.26 81.19 17.26C81.8773 17.2187 82.5646 17.3392 83.1968 17.6119C83.829 17.8845 84.3884 18.3018 84.83 18.83V17.38H87.86ZM84.71 22.54C84.7502 21.9587 84.6143 21.3789 84.3202 20.8759C84.026 20.373 83.5872 19.9703 83.0609 19.7204C82.5345 19.4704 81.9451 19.3849 81.3695 19.4748C80.7938 19.5647 80.2585 19.8259 79.8335 20.2244C79.4084 20.6229 79.1132 21.1402 78.9864 21.7088C78.8596 22.2775 78.907 22.8712 79.1225 23.4126C79.338 23.9539 79.7116 24.4178 80.1945 24.7437C80.6774 25.0697 81.2474 25.2426 81.83 25.24C82.2001 25.2677 82.5719 25.2183 82.9219 25.0948C83.2718 24.9713 83.5924 24.7765 83.8631 24.5226C84.1339 24.2688 84.3489 23.9615 84.4947 23.6202C84.6405 23.2789 84.7138 22.9111 84.71 22.54V22.54Z" fill="white"/>
<path d="M100.57 22.11V28.39H97.57V27C97.2003 27.5322 96.6942 27.9551 96.1048 28.2243C95.5153 28.4935 94.8643 28.5991 94.22 28.53C91.64 28.53 90.1 27.1 90.1 25.2C90.1 23.3 91.47 21.9 94.83 21.9H97.37C97.37 20.53 96.55 19.73 94.83 19.73C93.6929 19.7112 92.5805 20.0621 91.66 20.73L90.51 18.5C91.9263 17.5952 93.5798 17.1323 95.26 17.17C98.63 17.22 100.57 18.77 100.57 22.11ZM97.38 24.91V23.78H95.19C93.69 23.78 93.19 24.34 93.19 25.07C93.19 25.8 93.9 26.4 95 26.4C95.504 26.4393 96.0072 26.3157 96.4357 26.0475C96.8642 25.7792 97.1952 25.3805 97.38 24.91V24.91Z" fill="white"/>
<path d="M108.35 27L109.47 24.5C110.861 25.4627 112.509 25.9853 114.2 26C116.2 26 116.96 25.35 116.96 24.47C116.96 21.79 108.63 23.63 108.63 18.31C108.63 15.87 110.63 13.85 114.63 13.85C116.381 13.8087 118.111 14.2479 119.63 15.12L118.63 17.63C117.416 16.9174 116.038 16.5316 114.63 16.51C112.63 16.51 111.91 17.25 111.91 18.15C111.91 20.78 120.23 18.96 120.23 24.22C120.23 26.62 118.23 28.66 114.16 28.66C112.1 28.7062 110.075 28.1274 108.35 27V27Z" fill="white"/>
<path d="M121.91 14.06C121.916 13.8089 121.973 13.5617 122.079 13.3338C122.184 13.1058 122.335 12.902 122.523 12.735C122.71 12.5681 122.93 12.4415 123.169 12.3632C123.408 12.2849 123.66 12.2566 123.91 12.28C124.156 12.2508 124.406 12.2731 124.643 12.3454C124.88 12.4178 125.1 12.5387 125.288 12.7004C125.476 12.8621 125.629 13.0611 125.736 13.2849C125.843 13.5086 125.902 13.7521 125.91 14C125.914 14.2626 125.866 14.5235 125.769 14.7677C125.672 15.0118 125.528 15.2345 125.345 15.423C125.162 15.6115 124.944 15.7621 124.703 15.8663C124.462 15.9704 124.203 16.0261 123.94 16.03C123.41 16.038 122.898 15.8349 122.517 15.4654C122.328 15.2825 122.178 15.0642 122.074 14.8231C121.97 14.5819 121.914 14.3226 121.91 14.06V14.06ZM122.3 17.38H125.49V28.38H122.3V17.38Z" fill="white"/>
<path d="M135.56 27.86C134.782 28.3462 133.876 28.5867 132.96 28.55C130.36 28.55 128.85 27.22 128.85 24.6V20.08H127.15V17.62H128.85V14.94H132V17.62H134.74V20.08H132V24.56C131.975 24.7525 131.993 24.9483 132.055 25.1325C132.116 25.3167 132.219 25.4846 132.354 25.6233C132.49 25.7621 132.656 25.8681 132.839 25.9333C133.022 25.9986 133.217 26.0214 133.41 26C133.873 26.0072 134.326 25.8633 134.7 25.59L135.56 27.86Z" fill="white"/>
<path d="M147.74 23.78H139.41C139.578 24.4684 139.99 25.0726 140.569 25.4807C141.148 25.8889 141.855 26.0734 142.56 26C143.068 26.0213 143.575 25.9383 144.05 25.756C144.525 25.5737 144.957 25.2959 145.32 24.94L147.02 26.78C146.44 27.3912 145.733 27.8675 144.948 28.1751C144.164 28.4827 143.321 28.6141 142.48 28.56C138.67 28.56 136.19 26.17 136.19 22.89C136.181 22.1254 136.328 21.367 136.624 20.6616C136.919 19.9562 137.355 19.3187 137.906 18.7884C138.457 18.2581 139.111 17.8463 139.827 17.5783C140.543 17.3102 141.306 17.1917 142.07 17.23C142.831 17.1885 143.592 17.3072 144.304 17.5786C145.016 17.8499 145.663 18.2678 146.203 18.8052C146.743 19.3425 147.165 19.9874 147.44 20.698C147.715 21.4085 147.838 22.169 147.8 22.93C147.8 23.17 147.76 23.52 147.74 23.78ZM139.37 21.92H144.79C144.68 21.2811 144.347 20.7017 143.852 20.284C143.356 19.8664 142.728 19.6373 142.08 19.6373C141.432 19.6373 140.804 19.8664 140.308 20.284C139.813 20.7017 139.48 21.2811 139.37 21.92Z" fill="white"/>
</g>
<defs>
<clipPath id="clip0">
<rect width="147.8" height="40" fill="white"/>
</clipPath>
</defs>
</svg>
