<svg width="175" height="175" viewBox="0 0 175 175" fill="none" xmlns="http://www.w3.org/2000/svg">
<path opacity="0.2" fill-rule="evenodd" clip-rule="evenodd" d="M87.5034 0C39.1743 0 0 39.1796 0 87.5068C0 135.827 39.1743 175 87.5034 175C135.819 175 175 135.834 175 87.5068C174.993 39.1796 135.812 0 87.5034 0ZM91.8522 44.8567C91.854 44.8567 91.8555 44.8554 91.8558 44.8535L91.9373 44.2009L92.0352 43.8291C92.0837 43.6447 92.1496 43.4653 92.232 43.2934L92.4224 42.896L92.7435 42.1582L93.1671 41.4204L93.6521 40.6826L94.2261 39.8491L94.957 39.043L95.7017 38.2095L96.5011 37.3077L97.4165 36.4879L98.4072 35.5793L99.4661 34.6775L100.621 33.8509L101.85 32.9491L103.244 32.1293L104.556 31.2276L106.025 30.4078L107.596 29.588L109.236 28.7613L110.964 28.0303L112.761 27.1969L114.578 26.541L116.546 25.7964L118.527 25.1474L119.925 24.7372C120.315 24.6228 120.608 25.0956 120.331 25.3933L119.839 25.974L119.272 26.6367L118.602 27.3608L117.953 28.1806L117.202 29.0004L116.471 29.991L115.644 30.8928L114.824 31.9654L113.909 32.9491L113.007 34.0285L112.119 35.0874L111.115 36.16L110.131 37.2189L109.147 38.2027L108.156 39.2684L107.186 40.259L106.196 41.2428L105.13 42.2334L104.139 43.1351L103.169 43.9549L102.178 44.7747L101.188 45.4306L100.218 46.0933L99.227 46.6603L98.3252 47.0839L97.6493 47.3911C97.4989 47.4594 97.3432 47.5153 97.1838 47.5581L96.5079 47.7397L95.9019 47.8562C95.7142 47.8923 95.5235 47.9105 95.3324 47.9105H95.1513C94.9223 47.9105 94.6941 47.8844 94.4711 47.8328L94.0689 47.7397L93.7143 47.6215C93.4599 47.5367 93.218 47.4184 92.9949 47.2697L92.8392 47.1658L92.7951 47.1304C92.5486 46.9324 92.3391 46.6923 92.1765 46.4212L92.0774 46.2231C91.98 46.0283 91.9126 45.82 91.8772 45.6052L91.8556 45.4733C91.8509 45.4449 91.8485 45.4161 91.8485 45.3873V44.8604C91.8485 44.8584 91.8502 44.8567 91.8522 44.8567ZM139.727 84.3779L137.103 86.9261L134.063 89.2284L130.531 91.3667L126.589 93.2523C125.984 93.5102 125.562 94.0706 125.482 94.7231L125.277 96.3812L124.608 100.74L123.719 105.003L122.565 109.197L121.171 113.221L119.532 117.081L117.728 120.784L115.671 124.309L113.376 127.602L110.821 130.724L108.027 133.518L104.986 136.148L101.7 138.451L98.1749 140.493L94.2397 142.304L89.9697 143.861L85.447 145.098L79.7765 146.164L74.024 146.587L68.1895 146.491L62.437 145.924L56.6914 144.947L51.1849 143.383L45.8423 141.409L40.8276 138.942L37.8988 137.169C37.5733 136.972 37.4843 136.54 37.7054 136.23L37.7476 136.184C37.7688 136.161 37.7806 136.131 37.7806 136.099C37.7806 136.078 37.7862 136.056 37.7969 136.038L37.8437 135.955C37.8608 135.924 37.8818 135.897 37.9063 135.872L37.9112 135.867C37.9378 135.841 37.9598 135.81 37.9764 135.776C38.0548 135.616 38.2433 135.543 38.409 135.609L42.884 137.385L47.318 138.703L51.6768 139.68L56.0355 140.261L60.3055 140.5L64.4935 140.418L68.5994 139.926L72.5415 139.188L76.4015 138.109L80.1796 136.797L83.7254 135.151L87.1687 133.252L90.3797 131.209L93.413 128.832L96.2073 126.208L98.8308 123.414L101.201 120.449L103.34 117.252L105.15 113.891L106.783 110.434L108.02 106.738L109.01 102.96L109.666 99.0933C109.75 98.4281 109.189 97.8597 108.523 97.9337L108.354 97.9525L103.511 98.3623H98.66L93.8229 98.1164L88.9723 97.3786L85.1191 96.5588L81.5733 95.5682L78.294 94.3385L75.2469 92.9517L72.4527 91.3872L69.9044 89.5768L67.5268 87.6913L65.3884 85.6349L63.4208 83.4147L61.6992 81.0236L60.1347 78.4822L58.741 75.8588L57.5932 73.1467L56.6026 70.3525L55.8579 67.4764L55.2908 64.5183L54.8741 61.5602L54.6281 58.6089L54.5462 55.562L54.6281 52.6038L54.8741 49.7209L55.2908 46.8584L55.7827 44.0574L56.4386 41.4341L57.1765 38.8039L57.9963 36.4196C58.2101 35.8394 58.6522 35.372 59.2197 35.1264L61.5352 34.1242L64.2407 33.2907L66.337 32.9433C66.5331 32.9108 66.7319 32.8978 66.9306 32.9044L68.3249 32.9509C68.5618 32.9588 68.7969 32.9946 69.0254 33.0575L70.2132 33.3847C70.3986 33.4358 70.5787 33.5045 70.751 33.5898L71.5198 33.9707C71.8163 34.1176 72.0866 34.3122 72.3199 34.5469L73.129 35.3607L73.8904 36.3706C74.0381 36.5665 74.1614 36.7797 74.2575 37.0055L74.7755 38.2232L75.2606 39.9584L75.5134 41.68L75.5954 43.5724L75.5134 45.4579L75.2606 47.3503L74.8575 49.1538L74.3656 50.7934L73.4638 53.7516L72.7191 56.6277L72.1521 59.3467L71.8105 61.8881L71.5645 64.3611V66.6566L71.7353 68.8769L71.9744 70.9332L72.4663 72.9007L73.0471 74.7931L73.7917 76.5147L74.6935 78.1679L75.6773 79.6436L76.8251 81.1124L78.1437 82.4309L79.5442 83.6674L81.0951 84.7332L82.7416 85.8057L84.47 86.7963L86.3557 87.6161L88.3232 88.4359L90.3865 89.0849L92.5112 89.6656L94.7384 90.2463L97.1091 90.6562L99.4866 91.0661L101.953 91.4009L104.501 91.64L107.125 91.8039L109.837 91.8928C109.924 91.8928 109.994 91.8224 109.994 91.7356V91.0661L109.584 86.8715L108.846 82.6085L107.705 78.3319L106.148 74.0621L104.167 69.7172L101.803 65.3517L99.4122 61.6668C99.0951 61.1781 98.9264 60.6079 98.9264 60.0254V59.8522L99.0904 58.6977L99.2543 57.55L99.5891 56.2315L99.9922 54.8378L100.566 53.5193L101.193 52.4086C101.272 52.2703 101.36 52.1383 101.459 52.014L102.295 50.9642L103.27 50.0009C103.389 49.8827 103.518 49.7748 103.656 49.6782L104.601 49.0146C104.766 48.8982 104.943 48.7988 105.129 48.7179L106.558 48.0949L108.532 47.5279L110.615 47.2303C110.757 47.2101 110.899 47.2 111.042 47.2H113.383L116.327 47.4459L118.186 47.8425C119.183 48.0554 120.005 48.7577 120.371 49.7095L121.014 51.381L122.087 54.749L123.077 58.3698L123.979 62.1477L124.703 66.1784L125.291 70.2022L125.783 74.4788L126.029 78.7418L126.111 83.1892L126.029 87.623L126.011 88.1015C125.976 89.0741 126.907 89.7937 127.839 89.5153L131.61 88.108L135.061 86.3045L138.136 84.3554C138.163 84.3386 138.188 84.3197 138.212 84.2991L138.96 83.6484C139.447 83.2255 140.125 83.8711 139.727 84.3779Z" fill="white"/>
</svg>
