<svg xmlns="http://www.w3.org/2000/svg" viewBox="0 0 32 35.79"><defs><style>.cls-1{fill:#fb5e5e;}</style></defs><g id="Layer_2" data-name="Layer 2"><g id="Layer_1-2" data-name="Layer 1"><path class="cls-1" d="M16,8a4,4,0,1,0-4-4A4,4,0,0,0,16,8Zm0-6a2,2,0,1,1-2,2A2,2,0,0,1,16,2Z"/><path class="cls-1" d="M32,8.05V7.57A3.57,3.57,0,0,0,28.43,4h-.26a3.84,3.84,0,0,0-2.71,1.12l-1.7,1.7a10.8,10.8,0,0,1,2.32.51l.8-.79A1.8,1.8,0,0,1,28.17,6h.26A1.57,1.57,0,0,1,30,7.57v.48a2.41,2.41,0,0,1-.35,1.25c-.27.45-.55.89-.83,1.33A9.33,9.33,0,0,0,16,11a9.35,9.35,0,0,0-12.82-.36c-.28-.45-.56-.89-.83-1.34A2.41,2.41,0,0,1,2,8.05V7.57A1.57,1.57,0,0,1,3.57,6h.26a1.8,1.8,0,0,1,1.29.54l.8.79a11.44,11.44,0,0,1,2.32-.51l-1.7-1.7A3.84,3.84,0,0,0,3.83,4H3.57A3.57,3.57,0,0,0,0,7.57v.48a4.47,4.47,0,0,0,.63,2.28c.38.63.76,1.24,1.16,1.85a9.35,9.35,0,0,0,1,12l5.49,5.5c-.5.26-1,.53-1.51.78l-.46.23A2.49,2.49,0,0,1,5.16,31H4.62A1.61,1.61,0,0,1,3,29.38a2.36,2.36,0,0,1,.68-1.65l.24-.24L2.51,26.08l-.24.24A4.33,4.33,0,0,0,1,29.38,3.62,3.62,0,0,0,4.62,33h.54a4.53,4.53,0,0,0,2-.48l.45-.23c.71-.35,1.4-.72,2.09-1.1l3.43,3.43a4,4,0,0,0,5.66,0l3.43-3.43c.69.38,1.38.75,2.09,1.1l.45.23a4.53,4.53,0,0,0,2,.48h.54A3.62,3.62,0,0,0,31,29.38a4.33,4.33,0,0,0-1.27-3.06l-.24-.24-1.41,1.41.24.24A2.36,2.36,0,0,1,29,29.38,1.61,1.61,0,0,1,27.38,31h-.54a2.49,2.49,0,0,1-1.14-.27l-.46-.23c-.51-.25-1-.52-1.51-.79l5.49-5.49a9.32,9.32,0,0,0,1-12c.4-.61.78-1.22,1.16-1.85A4.47,4.47,0,0,0,32,8.05ZM9.39,10.26a7.35,7.35,0,0,1,5.2,2.15L16,13.83l1.41-1.42a7.35,7.35,0,0,1,5.2-2.15,7.25,7.25,0,0,1,5.09,2.06A55.83,55.83,0,0,1,16,24.68,55.83,55.83,0,0,1,4.3,12.32,7.25,7.25,0,0,1,9.39,10.26ZM4.19,22.81A7.36,7.36,0,0,1,3,14a57.87,57.87,0,0,0,11.33,12q-2.07,1.48-4.26,2.78Zm13.22,10.4a2,2,0,0,1-2.82,0l-3.06-3.05q2.31-1.39,4.47-3,2.16,1.57,4.46,3ZM30,17.61a7.29,7.29,0,0,1-2.15,5.2L21.92,28.7q-2.19-1.29-4.26-2.78A57.87,57.87,0,0,0,29,14,7.29,7.29,0,0,1,30,17.61Z"/></g></g></svg>