<svg width="172" height="40" viewBox="0 0 172 40" fill="none" xmlns="http://www.w3.org/2000/svg">
<path d="M165.044 15.3859H163.869V14.8286H166.878V15.3859H165.703V18.3749H165.044V15.3859Z" fill="white"/>
<path d="M170.63 18.3749L170.625 16.0242L169.46 17.9696H169.166L168.001 16.0546V18.3749H167.373V14.8286H167.915L169.323 17.1793L170.706 14.8286H171.248L171.253 18.3749H170.63Z" fill="white"/>
<path d="M57.5462 23.1755V28.3876H54.803V23.2177L49 13.6165H51.9331L56.259 20.8121L60.627 13.6165H63.328L57.5462 23.1755Z" fill="white"/>
<path d="M68.6786 28.5353C67.5391 28.5353 66.5122 28.2892 65.5978 27.7968C64.6834 27.3044 63.9659 26.6221 63.4454 25.7499C62.939 24.8637 62.6857 23.8648 62.6857 22.7535C62.6857 21.6421 62.939 20.6504 63.4454 19.7782C63.9659 18.906 64.6834 18.2237 65.5978 17.7313C66.5122 17.2389 67.5391 16.9927 68.6786 16.9927C69.8322 16.9927 70.8661 17.2389 71.7805 17.7313C72.6949 18.2237 73.4054 18.906 73.9118 19.7782C74.4323 20.6504 74.6926 21.6421 74.6926 22.7535C74.6926 23.8648 74.4323 24.8637 73.9118 25.7499C73.4054 26.6221 72.6949 27.3044 71.7805 27.7968C70.8661 28.2892 69.8322 28.5353 68.6786 28.5353ZM68.6786 26.2775C69.6493 26.2775 70.4511 25.9539 71.0842 25.3068C71.7172 24.6597 72.0338 23.8086 72.0338 22.7535C72.0338 21.6984 71.7172 20.8473 71.0842 20.2002C70.4511 19.5531 69.6493 19.2295 68.6786 19.2295C67.7079 19.2295 66.9061 19.5531 66.273 20.2002C65.654 20.8473 65.3445 21.6984 65.3445 22.7535C65.3445 23.8086 65.654 24.6597 66.273 25.3068C66.9061 25.9539 67.7079 26.2775 68.6786 26.2775Z" fill="white"/>
<path d="M88.3987 17.1194V26.6784C88.3987 30.6455 86.373 32.6291 82.3215 32.6291C81.2382 32.6291 80.2113 32.4884 79.2406 32.207C78.2699 31.9397 77.4681 31.5458 76.835 31.0253L78.0167 29.0418C78.5091 29.4497 79.1281 29.7733 79.8737 30.0125C80.6333 30.2657 81.4 30.3923 82.1738 30.3923C83.4117 30.3923 84.3191 30.1109 84.8959 29.5482C85.4726 28.9855 85.761 28.1274 85.761 26.9738V26.383C85.3109 26.8753 84.7622 27.2481 84.1151 27.5014C83.468 27.7546 82.7576 27.8812 81.9838 27.8812C80.9147 27.8812 79.944 27.6561 79.0718 27.2059C78.2137 26.7417 77.5314 26.0946 77.025 25.2646C76.5326 24.4346 76.2864 23.485 76.2864 22.4159C76.2864 21.3467 76.5326 20.4042 77.025 19.5882C77.5314 18.7583 78.2137 18.1182 79.0718 17.668C79.944 17.2178 80.9147 16.9927 81.9838 16.9927C82.7998 16.9927 83.5383 17.1264 84.1995 17.3937C84.8748 17.661 85.4375 18.0689 85.8876 18.6176V17.1194H88.3987ZM82.3848 25.6444C83.3836 25.6444 84.1995 25.349 84.8326 24.7582C85.4797 24.1532 85.8032 23.3725 85.8032 22.4159C85.8032 21.4733 85.4797 20.7066 84.8326 20.1158C84.1995 19.5249 83.3836 19.2295 82.3848 19.2295C81.3719 19.2295 80.5419 19.5249 79.8948 20.1158C79.2617 20.7066 78.9452 21.4733 78.9452 22.4159C78.9452 23.3725 79.2617 24.1532 79.8948 24.7582C80.5419 25.349 81.3719 25.6444 82.3848 25.6444Z" fill="white"/>
<path d="M96.1712 16.9927C97.8312 16.9927 99.0973 17.3937 99.9695 18.1955C100.856 18.9833 101.299 20.1791 101.299 21.7828V28.3876H98.8089V27.016C98.4854 27.5084 98.0211 27.8882 97.4162 28.1555C96.8254 28.4087 96.1079 28.5353 95.2639 28.5353C94.4198 28.5353 93.6812 28.3947 93.0482 28.1133C92.4151 27.8179 91.9228 27.417 91.5711 26.9105C91.2334 26.39 91.0646 25.8062 91.0646 25.1591C91.0646 24.1462 91.4374 23.3373 92.183 22.7324C92.9427 22.1134 94.1314 21.8039 95.7492 21.8039H98.6612V21.6351C98.6612 20.8473 98.4221 20.2424 97.9438 19.8204C97.4795 19.3983 96.7832 19.1873 95.8547 19.1873C95.2217 19.1873 94.5956 19.2858 93.9767 19.4827C93.3717 19.6797 92.8583 19.954 92.4362 20.3057L91.4023 18.3855C91.9931 17.9353 92.7035 17.5906 93.5335 17.3515C94.3635 17.1123 95.2428 16.9927 96.1712 16.9927ZM95.8125 26.6151C96.4737 26.6151 97.0575 26.4674 97.5639 26.172C98.0844 25.8625 98.4502 25.4264 98.6612 24.8637V23.5554H95.9391C94.4198 23.5554 93.6601 24.0548 93.6601 25.0536C93.6601 25.5319 93.85 25.9117 94.2299 26.1931C94.6097 26.4744 95.1373 26.6151 95.8125 26.6151Z" fill="white"/>
<path d="M113.237 28.5986C112.295 28.5986 111.423 28.4158 110.621 28.05C109.833 27.6702 109.186 27.1426 108.679 26.4674L110.241 24.5893C111.057 25.7148 112.035 26.2775 113.174 26.2775C114.707 26.2775 115.474 25.3701 115.474 23.5554V15.9166H110.22V13.6165H118.217V23.4076C118.217 25.138 117.795 26.4392 116.951 27.3114C116.107 28.1696 114.869 28.5986 113.237 28.5986Z" fill="white"/>
<path d="M126.876 28.5353C125.737 28.5353 124.71 28.2892 123.795 27.7968C122.881 27.3044 122.164 26.6221 121.643 25.7499C121.137 24.8637 120.883 23.8648 120.883 22.7535C120.883 21.6421 121.137 20.6504 121.643 19.7782C122.164 18.906 122.881 18.2237 123.795 17.7313C124.71 17.2389 125.737 16.9927 126.876 16.9927C128.03 16.9927 129.064 17.2389 129.978 17.7313C130.893 18.2237 131.603 18.906 132.11 19.7782C132.63 20.6504 132.89 21.6421 132.89 22.7535C132.89 23.8648 132.63 24.8637 132.11 25.7499C131.603 26.6221 130.893 27.3044 129.978 27.7968C129.064 28.2892 128.03 28.5353 126.876 28.5353ZM126.876 26.2775C127.847 26.2775 128.649 25.9539 129.282 25.3068C129.915 24.6597 130.231 23.8086 130.231 22.7535C130.231 21.6984 129.915 20.8473 129.282 20.2002C128.649 19.5531 127.847 19.2295 126.876 19.2295C125.906 19.2295 125.104 19.5531 124.471 20.2002C123.852 20.8473 123.542 21.6984 123.542 22.7535C123.542 23.8086 123.852 24.6597 124.471 25.3068C125.104 25.9539 125.906 26.2775 126.876 26.2775Z" fill="white"/>
<path d="M135.413 17.1194H138.05V28.3876H135.413V17.1194ZM136.742 15.2624C136.264 15.2624 135.863 15.1147 135.539 14.8193C135.216 14.5098 135.054 14.13 135.054 13.6798C135.054 13.2296 135.216 12.8568 135.539 12.5614C135.863 12.2519 136.264 12.0972 136.742 12.0972C137.22 12.0972 137.621 12.2449 137.945 12.5403C138.268 12.8217 138.43 13.1804 138.43 13.6165C138.43 14.0807 138.268 14.4746 137.945 14.7982C137.635 15.1077 137.234 15.2624 136.742 15.2624Z" fill="white"/>
<path d="M147.906 16.9927C149.327 16.9927 150.466 17.4077 151.325 18.2377C152.183 19.0677 152.612 20.2987 152.612 21.9305V28.3876H149.974V22.2682C149.974 21.2834 149.742 20.5449 149.278 20.0525C148.813 19.546 148.152 19.2928 147.294 19.2928C146.323 19.2928 145.557 19.5882 144.994 20.1791C144.431 20.7559 144.15 21.5929 144.15 22.6902V28.3876H141.512V17.1194H144.023V18.5754C144.459 18.0549 145.008 17.661 145.669 17.3937C146.33 17.1264 147.076 16.9927 147.906 16.9927Z" fill="white"/>
<path d="M162.731 27.7757C162.422 28.0289 162.042 28.2188 161.592 28.3454C161.156 28.472 160.692 28.5353 160.199 28.5353C158.961 28.5353 158.005 28.2118 157.329 27.5647C156.654 26.9176 156.317 25.975 156.317 24.737V19.3139H154.46V17.2038H156.317V14.6294H158.954V17.2038H161.972V19.3139H158.954V24.6737C158.954 25.2224 159.088 25.6444 159.355 25.9398C159.622 26.2212 160.009 26.3619 160.516 26.3619C161.107 26.3619 161.599 26.2071 161.993 25.8976L162.731 27.7757Z" fill="white"/>
<path fill-rule="evenodd" clip-rule="evenodd" d="M20 0C8.95378 0 0 8.95534 0 20.0016C0 31.0462 8.95378 40 20 40C31.0431 40 39.9984 31.0478 39.9984 20.0016C39.9969 8.95534 31.0415 0 20 0ZM20.994 10.253C20.9944 10.253 20.9947 10.2527 20.9948 10.2522L21.0134 10.1031C21.0394 10.0044 21.0747 9.9084 21.1188 9.81638L21.1243 9.80481L21.1977 9.63616L21.2945 9.46752L21.4054 9.29887L21.5365 9.10837L21.7036 8.92411L21.8738 8.7336L22.0565 8.52748L22.2658 8.3401L22.4922 8.13242L22.7342 7.9263L22.9981 7.73735L23.2792 7.53123L23.5978 7.34385L23.8976 7.13773L24.2333 6.95034L24.5924 6.76296L24.9672 6.57402L25.3623 6.40693L25.773 6.21643L26.1883 6.06652L26.638 5.89631L27.0909 5.74797L27.4104 5.65422C27.4996 5.62806 27.5664 5.73613 27.5031 5.80418L27.3907 5.93691L27.2611 6.08838L27.1081 6.2539L26.9597 6.44129L26.7879 6.62867L26.6209 6.85509L26.4319 7.06121L26.2445 7.30637L26.0353 7.53123L25.8292 7.77795L25.6262 8.01999L25.3966 8.26515L25.1718 8.50718L24.9469 8.73204L24.7205 8.97564L24.4988 9.20206L24.2723 9.42692L24.0287 9.65334L23.8023 9.85946L23.5806 10.0468L23.3542 10.2342L23.1277 10.3841L22.906 10.5356L22.6796 10.6652L22.4735 10.762L22.4646 10.7661C22.3333 10.8257 22.1974 10.8745 22.0581 10.9119L21.9381 10.935C21.8829 10.9456 21.8268 10.951 21.7706 10.951C21.7033 10.951 21.6362 10.9433 21.5706 10.9281L21.5006 10.9119L21.4602 10.8984C21.3751 10.8701 21.2942 10.8305 21.2196 10.7808L21.2095 10.7727C21.1531 10.7274 21.1053 10.6725 21.0681 10.6106L21.0454 10.5653C21.0232 10.5208 21.0078 10.4732 20.9997 10.424L20.9947 10.3939C20.9937 10.3874 20.9931 10.3808 20.9931 10.3742V10.2538C20.9931 10.2533 20.9935 10.253 20.994 10.253ZM31.9363 19.2864L31.3367 19.8688L30.6418 20.3951L29.8345 20.8838L28.9335 21.3148C28.7953 21.3738 28.6989 21.5018 28.6804 21.651L28.6337 22.03L28.4806 23.0262L28.2776 24.0006L28.0137 24.9594L27.6952 25.8791L27.3204 26.7614L26.9082 27.6077L26.4382 28.4135L25.9135 29.1661L25.3295 29.8798L24.6908 30.5184L23.9959 31.1196L23.2448 31.6458L22.4391 32.1127L21.5397 32.5265L20.5637 32.8826L19.53 33.1652L18.2339 33.4088L16.9191 33.5056L15.5856 33.4838L14.2708 33.3542L12.9575 33.1309L11.6989 32.7733L10.4778 32.322L9.33167 31.7583L8.66225 31.353C8.58785 31.308 8.5675 31.2091 8.61805 31.1383L8.62768 31.1278C8.63253 31.1226 8.63523 31.1156 8.63523 31.1084C8.63523 31.1035 8.63651 31.0986 8.63895 31.0943L8.64966 31.0753C8.65355 31.0685 8.65837 31.0621 8.66396 31.0565L8.66508 31.0554C8.67116 31.0493 8.6762 31.0423 8.67998 31.0346C8.69791 30.998 8.74098 30.9813 8.77886 30.9963L9.80169 31.4022L10.8151 31.7036L11.8114 31.9269L12.8076 32.0596L13.7836 32.1143L14.7408 32.0956L15.6793 31.9831L16.5803 31.8145L17.4625 31.5678L18.326 31.268L19.1365 30.8916L19.9235 30.4575L20.6574 29.9906L21.3507 29.4472L21.9894 28.8476L22.589 28.2089L23.1309 27.5312L23.6196 26.8004L24.0334 26.0322L24.4066 25.242L24.6893 24.3973L24.9157 23.5337L25.0656 22.6499C25.0847 22.4979 24.9566 22.3679 24.8043 22.3848L24.7658 22.3891L23.6587 22.4828H22.55L21.4444 22.4266L20.3357 22.258L19.455 22.0706L18.6446 21.8442L17.8951 21.5631L17.1986 21.2461L16.56 20.8885L15.9775 20.4747L15.4341 20.0437L14.9453 19.5737L14.4956 19.0662L14.1021 18.5197L13.7445 17.9388L13.426 17.3392L13.1636 16.7192L12.9372 16.0806L12.767 15.4232L12.6374 14.747L12.5422 14.0709L12.4859 13.3963L12.4672 12.6999L12.4859 12.0237L12.5422 11.3648L12.6374 10.7105L12.7498 10.0703L12.8998 9.47064L13.0684 8.86946L13.2558 8.32448C13.3046 8.19186 13.4057 8.08503 13.5354 8.02888L14.0646 7.79981L14.683 7.60931L15.0188 7.55367C15.1589 7.53044 15.3011 7.52112 15.4431 7.52586L15.461 7.52645C15.6185 7.5317 15.7747 7.55549 15.9266 7.59732L15.9788 7.61171C16.0673 7.63608 16.1532 7.66885 16.2354 7.70958C16.3769 7.77967 16.5059 7.87256 16.6172 7.98453L16.7146 8.08245L16.717 8.0857C16.8647 8.28163 16.988 8.49486 17.084 8.72066L17.0909 8.73673L17.2017 9.13335L17.2595 9.52686L17.2783 9.9594L17.2595 10.3904L17.2017 10.8229L17.1096 11.2352L16.9972 11.6099L16.7911 12.2861L16.6209 12.9435L16.4913 13.565L16.4132 14.1458L16.357 14.7111V15.2358L16.396 15.7433L16.4507 16.2133L16.5631 16.663L16.6958 17.0956L16.866 17.4891L17.0721 17.867L17.297 18.2042L17.5593 18.54L17.8607 18.8413L18.1808 19.124L18.5353 19.3676L18.9116 19.6127L19.3067 19.8392L19.7377 20.0265L20.1874 20.2139L20.659 20.3623L21.1446 20.495L21.6537 20.6277L22.1955 20.7214L22.7389 20.8151L23.3026 20.8916L23.8851 20.9463L24.4847 20.9838L25.1046 21.0041C25.1245 21.0041 25.1405 20.988 25.1405 20.9681V20.8151L25.0468 19.8563L24.8782 18.8819L24.6174 17.9044L24.2614 16.9285L23.8086 15.9354L23.2683 14.9375L22.7434 14.1285C22.6569 13.9951 22.6109 13.8395 22.6109 13.6805L22.6483 13.4166L22.6858 13.1543L22.7623 12.8529L22.8545 12.5344L22.9856 12.233L23.0385 12.1394C23.1166 12.0011 23.2055 11.8692 23.3044 11.7448L23.3807 11.649L23.5184 11.5129C23.6024 11.4299 23.6931 11.3541 23.7897 11.2862C23.9061 11.2045 24.0304 11.1347 24.1607 11.0779L24.3551 10.9931L24.8064 10.8635L25.1188 10.8189C25.2601 10.7987 25.4027 10.7886 25.5454 10.7886H25.9151L26.5881 10.8448L26.6125 10.85C27.0901 10.9519 27.4839 11.2884 27.6593 11.7442L27.9044 12.5141L28.1309 13.3417L28.337 14.2052L28.5025 15.1265L28.6368 16.0462L28.7492 17.0237L28.8054 17.9981L28.8242 19.0147L28.8054 20.0281L28.8015 20.1375C28.7935 20.3598 29.0061 20.5243 29.2192 20.4606L30.0812 20.139L30.8698 19.7267L31.5727 19.2812C31.5788 19.2774 31.5845 19.2731 31.59 19.2684L31.7611 19.1196C31.8723 19.023 32.0273 19.1705 31.9363 19.2864Z" fill="white"/>
</svg>
