<svg xmlns="http://www.w3.org/2000/svg" viewBox="0 0 16 24"><defs><style>.cls-1{fill:#fff;}</style></defs><g id="Layer_2" data-name="Layer 2"><g id="Layer_1-2" data-name="Layer 1"><path class="cls-1" d="M16,8.4a8.76,8.76,0,0,0-.61-3.21,8.45,8.45,0,0,0-1.73-2.73A8.05,8.05,0,0,0,11.06.64a7.64,7.64,0,0,0-6.12,0,8.05,8.05,0,0,0-2.6,1.82A8.45,8.45,0,0,0,.61,5.19a8.74,8.74,0,0,0,.65,7.73h0L8,24l6.75-11.08h0A8.72,8.72,0,0,0,16,8.4ZM8,12A3.35,3.35,0,0,1,5.58,11a3.72,3.72,0,0,1,0-5.1,3.31,3.31,0,0,1,4.84,0,3.72,3.72,0,0,1,0,5.1A3.35,3.35,0,0,1,8,12Z"/></g></g></svg>