<svg width="104" height="29" viewBox="0 0 104 29" fill="none" xmlns="http://www.w3.org/2000/svg">
<g clip-path="url(#clip0)">
<path d="M47.6374 26.9916C47.8651 27.0596 48.0457 27.1741 48.1792 27.3351C48.3126 27.4925 48.3794 27.6893 48.3794 27.9254C48.3794 28.251 48.242 28.5032 47.9672 28.6821C47.6924 28.8574 47.292 28.9451 46.7659 28.9451H44.7168V25.1884H46.6482C47.1349 25.1884 47.5098 25.2761 47.7729 25.4514C48.0359 25.6231 48.1674 25.861 48.1674 26.1652C48.1674 26.3512 48.1203 26.5158 48.0261 26.6589C47.9318 26.802 47.8023 26.9129 47.6374 26.9916ZM45.4823 25.7358V26.7716H46.5657C46.8327 26.7716 47.0368 26.7286 47.1781 26.6428C47.3234 26.5533 47.396 26.4245 47.396 26.2564C47.396 26.0847 47.3234 25.9559 47.1781 25.87C47.0368 25.7805 46.8327 25.7358 46.5657 25.7358H45.4823ZM46.7188 28.3977C47.3116 28.3977 47.608 28.217 47.608 27.8556C47.608 27.4943 47.3116 27.3136 46.7188 27.3136H45.4823V28.3977H46.7188Z" fill="white"/>
<path d="M50.8883 27.6195V28.9451H50.1229V27.6302L48.5036 25.1884H49.322L50.5292 27.0184L51.748 25.1884H52.5018L50.8883 27.6195Z" fill="white"/>
<path d="M56.4087 27.6195V28.9451H55.6432V27.6302L54.0239 25.1884H54.8424L56.0495 27.0184L57.2684 25.1884H58.0221L56.4087 27.6195Z" fill="white"/>
<path d="M60.2706 28.9987C59.8506 28.9987 59.4718 28.9164 59.1342 28.7519C58.7966 28.5837 58.5316 28.3529 58.3392 28.0596C58.1469 27.7626 58.0507 27.4317 58.0507 27.0667C58.0507 26.7018 58.1469 26.3727 58.3392 26.0793C58.5316 25.7823 58.7966 25.5516 59.1342 25.387C59.4718 25.2188 59.8506 25.1348 60.2706 25.1348C60.6907 25.1348 61.0695 25.2188 61.4071 25.387C61.7447 25.5516 62.0096 25.7805 62.202 26.0739C62.3944 26.3673 62.4905 26.6982 62.4905 27.0667C62.4905 27.4352 62.3944 27.7662 62.202 28.0596C62.0096 28.3529 61.7447 28.5837 61.4071 28.7519C61.0695 28.9164 60.6907 28.9987 60.2706 28.9987ZM60.2706 28.3869C60.5454 28.3869 60.7927 28.3315 61.0126 28.2206C61.2324 28.1061 61.4051 27.9487 61.5307 27.7483C61.6563 27.5444 61.7192 27.3172 61.7192 27.0667C61.7192 26.8163 61.6563 26.5909 61.5307 26.3906C61.4051 26.1866 61.2324 26.0292 61.0126 25.9183C60.7927 25.8038 60.5454 25.7466 60.2706 25.7466C59.9958 25.7466 59.7485 25.8038 59.5287 25.9183C59.3089 26.0292 59.1361 26.1866 59.0105 26.3906C58.8849 26.5909 58.8221 26.8163 58.8221 27.0667C58.8221 27.3172 58.8849 27.5444 59.0105 27.7483C59.1361 27.9487 59.3089 28.1061 59.5287 28.2206C59.7485 28.3315 59.9958 28.3869 60.2706 28.3869Z" fill="white"/>
<path d="M66.1166 27.0238H66.8408V28.5211C66.6289 28.6749 66.3815 28.793 66.0989 28.8753C65.8163 28.9576 65.5258 28.9987 65.2274 28.9987C64.8074 28.9987 64.4286 28.9164 64.091 28.7519C63.7534 28.5837 63.4884 28.3529 63.296 28.0596C63.1037 27.7662 63.0075 27.4352 63.0075 27.0667C63.0075 26.6982 63.1037 26.3673 63.296 26.0739C63.4884 25.7805 63.7534 25.5516 64.091 25.387C64.4325 25.2188 64.8152 25.1348 65.2392 25.1348C65.5847 25.1348 65.8987 25.1866 66.1813 25.2904C66.464 25.3942 66.7015 25.5462 66.8938 25.7466L66.411 26.1759C66.0969 25.8897 65.7181 25.7466 65.2745 25.7466C64.984 25.7466 64.725 25.802 64.4973 25.9129C64.2735 26.0238 64.0969 26.1795 63.9673 26.3798C63.8417 26.5802 63.7789 26.8091 63.7789 27.0667C63.7789 27.3172 63.8417 27.5426 63.9673 27.7429C64.0969 27.9433 64.2735 28.1007 64.4973 28.2152C64.725 28.3297 64.9821 28.3869 65.2686 28.3869C65.5905 28.3869 65.8732 28.3225 66.1166 28.1937V27.0238Z" fill="white"/>
<path d="M70.5238 28.0757H68.4628L68.0565 28.9451H67.2675L69.1223 25.1884H69.8761L71.7368 28.9451H70.936L70.5238 28.0757ZM70.2706 27.5283L69.4933 25.8861L68.7219 27.5283H70.2706Z" fill="white"/>
<path d="M74.7009 28.9987C74.4379 28.9987 74.1945 28.9522 73.9707 28.8592C73.7509 28.7626 73.5703 28.6284 73.429 28.4567L73.8647 27.9791C74.0924 28.2653 74.3652 28.4084 74.6832 28.4084C75.1111 28.4084 75.325 28.1776 75.325 27.7161V25.7734H73.8588V25.1884H76.0905V27.6785C76.0905 28.1186 75.9728 28.4495 75.7372 28.6714C75.5017 28.8896 75.1562 28.9987 74.7009 28.9987Z" fill="white"/>
<path d="M79.0897 28.9987C78.6697 28.9987 78.2909 28.9164 77.9533 28.7519C77.6157 28.5837 77.3507 28.3529 77.1583 28.0596C76.966 27.7626 76.8698 27.4317 76.8698 27.0667C76.8698 26.7018 76.966 26.3727 77.1583 26.0793C77.3507 25.7823 77.6157 25.5516 77.9533 25.387C78.2909 25.2188 78.6697 25.1348 79.0897 25.1348C79.5098 25.1348 79.8886 25.2188 80.2262 25.387C80.5638 25.5516 80.8288 25.7805 81.0211 26.0739C81.2135 26.3673 81.3096 26.6982 81.3096 27.0667C81.3096 27.4352 81.2135 27.7662 81.0211 28.0596C80.8288 28.3529 80.5638 28.5837 80.2262 28.7519C79.8886 28.9164 79.5098 28.9987 79.0897 28.9987ZM79.0897 28.3869C79.3645 28.3869 79.6118 28.3315 79.8317 28.2206C80.0515 28.1061 80.2242 27.9487 80.3498 27.7483C80.4754 27.5444 80.5383 27.3172 80.5383 27.0667C80.5383 26.8163 80.4754 26.5909 80.3498 26.3906C80.2242 26.1866 80.0515 26.0292 79.8317 25.9183C79.6118 25.8038 79.3645 25.7466 79.0897 25.7466C78.8149 25.7466 78.5676 25.8038 78.3478 25.9183C78.128 26.0292 77.9552 26.1866 77.8296 26.3906C77.704 26.5909 77.6412 26.8163 77.6412 27.0667C77.6412 27.3172 77.704 27.5444 77.8296 27.7483C77.9552 27.9487 78.128 28.1061 78.3478 28.2206C78.5676 28.3315 78.8149 28.3869 79.0897 28.3869Z" fill="white"/>
<path d="M82.121 25.1884H82.8865V28.9451H82.121V25.1884Z" fill="white"/>
<path d="M87.6639 25.1884V28.9451H87.0339L84.761 26.4013V28.9451H84.0014V25.1884H84.6314L86.9044 27.7322V25.1884H87.6639Z" fill="white"/>
<path d="M89.6046 25.7788H88.2385V25.1884H91.7362V25.7788H90.3701V28.9451H89.6046V25.7788Z" fill="white"/>
<path d="M10.5063 19.9291C8.93924 19.9291 7.23881 19.882 5.405 19.7878C3.59568 19.6936 2.07607 19.5712 0.846154 19.4205L2.13762 14.9275C5.07067 15.1159 7.40643 15.2101 9.14488 15.2101C10.1977 15.2101 10.9473 15.2006 11.3934 15.1818C11.8694 15.1441 12.2067 15.0782 12.4052 14.984C12.6037 14.8898 12.7341 14.7768 12.7965 14.6449C12.8888 14.4942 12.9809 14.2587 13.073 13.9385C13.1813 13.5617 13.1836 13.2979 13.08 13.1472C12.9819 12.9777 12.745 12.8647 12.3695 12.8081C11.9994 12.7328 11.2674 12.6386 10.1736 12.5256L5.99828 12.1017C4.61604 11.9698 3.78684 11.4047 3.51067 10.4062C3.2644 9.38896 3.41743 7.91955 3.96976 5.99803C4.43544 4.37792 5.22132 3.13458 6.3274 2.26801C7.43888 1.3826 8.74802 0.789184 10.2548 0.487769C11.7861 0.186352 13.5923 0.0356445 15.6736 0.0356445C17.2161 0.0356445 18.7792 0.0921597 20.3627 0.20519C21.9708 0.318222 23.2401 0.45951 24.1708 0.629057L22.8956 5.06552C21.9677 4.97133 20.8263 4.89598 19.4714 4.83946C18.1165 4.78295 16.8636 4.75469 15.7128 4.75469C14.4885 4.75469 13.7105 4.82062 13.3788 4.95249C12.9574 5.14088 12.6898 5.43287 12.5761 5.82848C12.4732 6.18641 12.4368 6.44073 12.467 6.59144C12.5216 6.74215 12.6605 6.85518 12.8837 6.93053C13.1368 6.98705 13.5953 7.05298 14.2592 7.12834L18.0101 7.49569C19.1039 7.60872 19.9775 7.80652 20.6308 8.0891C21.3086 8.37168 21.7868 8.88032 22.0653 9.61502C22.382 10.3874 22.2885 11.6496 21.7849 13.4016C21.2434 15.2854 20.4455 16.6983 19.3913 17.6402C18.337 18.5821 17.1054 19.2038 15.6966 19.5052C14.2931 19.7878 12.5631 19.9291 10.5063 19.9291Z" fill="white"/>
<path d="M35.8237 19.703L37.8624 12.6103H33.198L31.1592 19.703H22.5649L28.1531 0.261706H36.7475L34.7169 7.32614H39.3813L41.4119 0.261706H50.0062L46.8587 11.2159L35.8237 19.703Z" fill="white"/>
<path d="M46.8587 19.703L50.2769 8.39994L61.0412 0.261706L55.453 19.703H46.8587Z" fill="white"/>
<path d="M58.6893 19.703L64.2776 0.261706H82.0538L80.6369 5.05001L71.4787 5.07328L70.4959 8.39994H78.3557L76.9992 13.119H69.1394L67.2469 19.703H58.6893Z" fill="white"/>
<path d="M82.547 19.703L86.8072 5.14254L80.6369 5.05001L82.0538 0.261706H102.937L101.609 5.14254H95.4016L91.1413 19.703H82.547Z" fill="white"/>
</g>
<defs>
<clipPath id="clip0">
<rect width="103.111" height="29" fill="white"/>
</clipPath>
</defs>
</svg>
